# Blender 4.0.2
# www.blender.org
mtllib donut2.mtl
o donut
v -6.000000 -2.000000 6.000000
v 6.000000 -2.000000 6.000000
v -6.000000 -2.000000 -6.000000
v 6.000000 -2.000000 -6.000000
v -2.000000 -2.000000 2.000000
v 2.000000 -2.000000 2.000000
v -2.000000 -2.000000 -2.000000
v 2.000000 -2.000000 -2.000000
v -6.000000 2.000000 6.000000
v 6.000000 2.000000 6.000000
v -6.000000 2.000000 -6.000000
v 6.000000 2.000000 -6.000000
v -2.000000 2.000000 2.000000
v 2.000000 2.000000 2.000000
v -2.000000 2.000000 -2.000000
v 2.000000 2.000000 -2.000000
v -6.000000 -2.000000 6.000000
v -6.000000 -2.000000 -6.000000
v -6.000000 2.000000 6.000000
v 6.000000 2.000000 6.000000
v -6.000000 2.000000 -6.000000
v 6.000000 2.000000 -6.000000
v -2.000000 2.000000 2.000000
v 2.000000 2.000000 2.000000
v -2.000000 2.000000 -2.000000
v 2.000000 2.000000 -2.000000
vn -0.0000 1.0000 -0.0000
vn -0.0000 -0.0000 -1.0000
vn 1.0000 -0.0000 -0.0000
vn -1.0000 -0.0000 -0.0000
vn -0.0000 -0.0000 1.0000
vn -0.0000 -1.0000 -0.0000
vt 0.000000 0.000000
s 0
f 8/1/1 2/1/1 4/1/1
f 1/1/1 6/1/1 5/1/1
f 4/1/1 7/1/1 8/1/1
f 3/1/1 5/1/1 7/1/1
f 7/1/2 16/1/2 8/1/2
f 8/1/3 14/1/3 6/1/3
f 5/1/4 15/1/4 7/1/4
f 6/1/5 13/1/5 5/1/5
f 2/1/4 12/1/4 4/1/4
f 1/1/2 10/1/2 2/1/2
f 4/1/5 11/1/5 3/1/5
f 20/1/6 26/1/6 22/1/6
f 24/1/6 19/1/6 23/1/6
f 25/1/6 22/1/6 26/1/6
f 23/1/6 21/1/6 25/1/6
f 18/1/3 21/1/3 17/1/3
f 19/1/3 17/1/3 21/1/3
f 8/1/1 6/1/1 2/1/1
f 1/1/1 2/1/1 6/1/1
f 4/1/1 3/1/1 7/1/1
f 3/1/1 1/1/1 5/1/1
f 7/1/2 15/1/2 16/1/2
f 8/1/3 16/1/3 14/1/3
f 5/1/4 13/1/4 15/1/4
f 6/1/5 14/1/5 13/1/5
f 2/1/4 10/1/4 12/1/4
f 1/1/2 9/1/2 10/1/2
f 4/1/5 12/1/5 11/1/5
f 20/1/6 24/1/6 26/1/6
f 24/1/6 20/1/6 19/1/6
f 25/1/6 21/1/6 22/1/6
f 23/1/6 19/1/6 21/1/6
