# Blender 4.0.2
# www.blender.org
mtllib donut.mtl
o donut
v -6.000000 -2.000000 6.000000
v 6.000000 -2.000000 6.000000
v -6.000000 -2.000000 -6.000000
v 6.000000 -2.000000 -6.000000
v -2.000000 -2.000000 2.000000
v 2.000000 -2.000000 2.000000
v -2.000000 -2.000000 -2.000000
v 2.000000 -2.000000 -2.000000
v -6.000000 2.000000 6.000000
v 6.000000 2.000000 6.000000
v -6.000000 2.000000 -6.000000
v 6.000000 2.000000 -6.000000
v -2.000000 2.000000 2.000000
v 2.000000 2.000000 2.000000
v -2.000000 2.000000 -2.000000
v 2.000000 2.000000 -2.000000
vn -0.0000 1.0000 -0.0000
vn -0.0000 -1.0000 -0.0000
vn -0.0000 -0.0000 -1.0000
vn 1.0000 -0.0000 -0.0000
vn -1.0000 -0.0000 -0.0000
vn -0.0000 -0.0000 1.0000
vt 0.000000 0.000000
s 0
f 4/1/1 8/1/1 6/1/1 2/1/1
f 5/1/1 1/1/1 2/1/1 6/1/1
f 8/1/1 4/1/1 3/1/1 7/1/1
f 7/1/1 3/1/1 1/1/1 5/1/1
f 12/1/2 10/1/2 14/1/2 16/1/2
f 13/1/2 14/1/2 10/1/2 9/1/2
f 16/1/2 15/1/2 11/1/2 12/1/2
f 15/1/2 13/1/2 9/1/2 11/1/2
f 8/1/3 7/1/3 15/1/3 16/1/3
f 6/1/4 8/1/4 16/1/4 14/1/4
f 7/1/5 5/1/5 13/1/5 15/1/5
f 5/1/6 6/1/6 14/1/6 13/1/6
f 4/1/5 2/1/5 10/1/5 12/1/5
f 1/1/4 3/1/4 11/1/4 9/1/4
f 2/1/3 1/1/3 9/1/3 10/1/3
f 3/1/6 4/1/6 12/1/6 11/1/6
