<svg width="775" height="733" xmlns="http://www.w3.org/2000/svg" xmlns:xlink="http://www.w3.org/1999/xlink" xml:space="preserve" overflow="hidden"><g transform="translate(-2227 -724)"><g><path d="M2235.5 1292.5 2373.5 740.5 2985.5 740.5 2847.5 1292.5Z" stroke="#000000" stroke-width="9.16667" stroke-linecap="butt" stroke-linejoin="miter" stroke-miterlimit="8" stroke-opacity="1" fill="none" fill-rule="evenodd"/><path d="M0 0 137.987 551.947" stroke="#000000" stroke-width="9.16667" stroke-linecap="butt" stroke-linejoin="miter" stroke-miterlimit="8" stroke-opacity="1" fill="none" fill-rule="evenodd" transform="matrix(-1 0 0 1 2679.49 740.5)"/><path d="M0 0 612.544 0.000360892" stroke="#000000" stroke-width="9.16667" stroke-linecap="butt" stroke-linejoin="miter" stroke-miterlimit="8" stroke-opacity="1" fill="none" fill-rule="evenodd" transform="matrix(-1 0 0 1 2917.04 1016.5)"/><path d="M0 0 612.544 0.000360892" stroke="#FFC000" stroke-width="9.16667" stroke-linecap="butt" stroke-linejoin="miter" stroke-miterlimit="8" stroke-opacity="1" fill="none" fill-rule="evenodd" transform="matrix(-1 0 0 1 2986.04 740.5)"/><path d="M2973 741C2973 733.82 2978.82 728 2986 728 2993.18 728 2999 733.82 2999 741 2999 748.18 2993.18 754 2986 754 2978.82 754 2973 748.18 2973 741Z" fill="#FF0000" fill-rule="evenodd" fill-opacity="1"/><path d="M2360 739C2360 731.82 2365.82 726 2373 726 2380.18 726 2386 731.82 2386 739 2386 746.18 2380.18 752 2373 752 2365.82 752 2360 746.18 2360 739Z" fill="#FF0000" fill-rule="evenodd" fill-opacity="1"/><path d="M2666 740C2666 732.82 2671.82 727 2679 727 2686.18 727 2692 732.82 2692 740 2692 747.18 2686.18 753 2679 753 2671.82 753 2666 747.18 2666 740Z" fill="#00B050" fill-rule="evenodd" fill-opacity="1"/><text fill="#000000" fill-opacity="1" font-family="Aptos,Aptos_MSFontService,sans-serif" font-style="normal" font-variant="normal" font-weight="400" font-stretch="normal" font-size="83" text-anchor="start" direction="ltr" writing-mode="lr-tb" unicode-bidi="normal" text-decoration="none" transform="matrix(1 0 0 1 2282.52 1384)">Edge </text><text fill="#000000" fill-opacity="1" font-family="Aptos,Aptos_MSFontService,sans-serif" font-style="normal" font-variant="normal" font-weight="400" font-stretch="normal" font-size="83" text-anchor="start" direction="ltr" writing-mode="lr-tb" unicode-bidi="normal" text-decoration="none" transform="matrix(1 0 0 1 2474.42 1384)">Texcoord</text></g></g></svg>