<svg width="3804" height="1540" xmlns="http://www.w3.org/2000/svg" xmlns:xlink="http://www.w3.org/1999/xlink" xml:space="preserve" overflow="hidden"><g transform="translate(-224 -508)"><g><path d="M233.502 1110.36 1059 535.5 1884.5 1110.36 1569.19 2040.5 548.813 2040.5Z" stroke="#000000" stroke-width="9.16667" stroke-linecap="butt" stroke-linejoin="miter" stroke-miterlimit="8" stroke-opacity="0.988235" fill="none" fill-rule="evenodd"/><path d="M0 0 382.441 570.447" stroke="#000000" stroke-width="9.16667" stroke-linecap="butt" stroke-linejoin="miter" stroke-miterlimit="8" stroke-opacity="1" fill="none" fill-rule="evenodd" transform="matrix(1 0 0 -1 1058.5 1376.95)"/><path d="M1058.46 1376.7 639.5 831.5" stroke="#000000" stroke-width="9.16667" stroke-linecap="butt" stroke-linejoin="miter" stroke-miterlimit="8" stroke-opacity="1" fill="none" fill-rule="evenodd"/><path d="M1730.15 1555.41 1058.5 1377.5" stroke="#000000" stroke-width="9.16667" stroke-linecap="butt" stroke-linejoin="miter" stroke-miterlimit="8" stroke-opacity="1" fill="none" fill-rule="evenodd"/><path d="M0 0 654.682 225.087" stroke="#000000" stroke-width="9.16667" stroke-linecap="butt" stroke-linejoin="miter" stroke-miterlimit="8" stroke-opacity="1" fill="none" fill-rule="evenodd" transform="matrix(-1 0 0 1 1056.18 1377.5)"/><text fill="#000000" fill-opacity="1" font-family="Aptos,Aptos_MSFontService,sans-serif" font-style="normal" font-variant="normal" font-weight="700" font-stretch="normal" font-size="50" text-anchor="start" direction="ltr" writing-mode="lr-tb" unicode-bidi="normal" text-decoration="none" transform="matrix(1 0 0 1 907.564 1133)">v</text><text fill="#000000" fill-opacity="1" font-family="Aptos,Aptos_MSFontService,sans-serif" font-style="normal" font-variant="normal" font-weight="700" font-stretch="normal" font-size="50" text-anchor="start" direction="ltr" writing-mode="lr-tb" unicode-bidi="normal" text-decoration="none" transform="matrix(1 0 0 1 932.199 1133)">e</text><path d="M1074.7 2040.77 1058.5 1377.5" stroke="#000000" stroke-width="9.16667" stroke-linecap="butt" stroke-linejoin="miter" stroke-miterlimit="8" stroke-opacity="1" fill="none" fill-rule="evenodd"/><path d="M1040.62 917.342 857.5 683.5" stroke="#000000" stroke-width="9.16667" stroke-linecap="butt" stroke-linejoin="miter" stroke-miterlimit="8" stroke-opacity="1" fill="none" fill-rule="evenodd"/><path d="M0 0 182.113 263.397" stroke="#000000" stroke-width="9.16667" stroke-linecap="butt" stroke-linejoin="miter" stroke-miterlimit="8" stroke-opacity="1" fill="none" fill-rule="evenodd" transform="matrix(1 0 0 -1 1040.5 917.897)"/><path d="M0 0 191.221 199.937" stroke="#000000" stroke-width="9.16667" stroke-linecap="butt" stroke-linejoin="miter" stroke-miterlimit="8" stroke-opacity="1" fill="none" fill-rule="evenodd" transform="matrix(1 0 0 -1 853.5 1113.44)"/><path d="M1257.76 1091.97 1038.5 913.5" stroke="#000000" stroke-width="9.16667" stroke-linecap="butt" stroke-linejoin="miter" stroke-miterlimit="8" stroke-opacity="1" fill="none" fill-rule="evenodd"/><path d="M1512.66 1234.45 1250.5 1084.5" stroke="#000000" stroke-width="9.16667" stroke-linecap="butt" stroke-linejoin="miter" stroke-miterlimit="8" stroke-opacity="1" fill="none" fill-rule="evenodd"/><path d="M0 0 140.063 285.224" stroke="#000000" stroke-width="9.16667" stroke-linecap="butt" stroke-linejoin="miter" stroke-miterlimit="8" stroke-opacity="1" fill="none" fill-rule="evenodd" transform="matrix(1 0 0 -1 1512.5 1233.72)"/><path d="M1808.07 1352.09 1506.5 1230.5" stroke="#000000" stroke-width="9.16667" stroke-linecap="butt" stroke-linejoin="miter" stroke-miterlimit="8" stroke-opacity="1" fill="none" fill-rule="evenodd"/><path d="M0 0 96.3157 227.698" stroke="#000000" stroke-width="9.16667" stroke-linecap="butt" stroke-linejoin="miter" stroke-miterlimit="8" stroke-opacity="1" fill="none" fill-rule="evenodd" transform="matrix(1 0 0 -1 1415.5 1466.2)"/><path d="M1349.29 1758.88 1067.5 1707.5" stroke="#000000" stroke-width="9.16667" stroke-linecap="butt" stroke-linejoin="miter" stroke-miterlimit="8" stroke-opacity="1" fill="none" fill-rule="evenodd"/><path d="M1651.51 1784.19 1348.5 1758.5" stroke="#000000" stroke-width="9.16667" stroke-linecap="butt" stroke-linejoin="miter" stroke-miterlimit="8" stroke-opacity="1" fill="none" fill-rule="evenodd"/><path d="M0 0 64.1205 292.548" stroke="#000000" stroke-width="9.16667" stroke-linecap="butt" stroke-linejoin="miter" stroke-miterlimit="8" stroke-opacity="1" fill="none" fill-rule="evenodd" transform="matrix(1 0 0 -1 1351.5 1759.05)"/><path d="M0 0 18.0554 273.63" stroke="#000000" stroke-width="9.16667" stroke-linecap="butt" stroke-linejoin="miter" stroke-miterlimit="8" stroke-opacity="1" fill="none" fill-rule="evenodd" transform="matrix(1 0 0 -1 1333.5 2035.13)"/><path d="M800.678 2040.27 767.5 1758.5" stroke="#000000" stroke-width="9.16667" stroke-linecap="butt" stroke-linejoin="miter" stroke-miterlimit="8" stroke-opacity="1" fill="none" fill-rule="evenodd"/><path d="M0 0 297.351 55" stroke="#000000" stroke-width="9.16667" stroke-linecap="butt" stroke-linejoin="miter" stroke-miterlimit="8" stroke-opacity="1" fill="none" fill-rule="evenodd" transform="matrix(1 0 0 -1 469.5 1813.5)"/><path d="M718.5 1489.5 767.498 1761.21" stroke="#000000" stroke-width="9.16667" stroke-linecap="butt" stroke-linejoin="miter" stroke-miterlimit="8" stroke-opacity="1" fill="none" fill-rule="evenodd"/><path d="M0 0 301.456 51.3759" stroke="#000000" stroke-width="9.16667" stroke-linecap="butt" stroke-linejoin="miter" stroke-miterlimit="8" stroke-opacity="1" fill="none" fill-rule="evenodd" transform="matrix(-1 0 0 1 1063.96 1707.5)"/><path d="M433.5 968.5 595.382 1230.47" stroke="#000000" stroke-width="9.16667" stroke-linecap="butt" stroke-linejoin="miter" stroke-miterlimit="8" stroke-opacity="1" fill="none" fill-rule="evenodd"/><path d="M0 0 255.002 120.545" stroke="#000000" stroke-width="9.16667" stroke-linecap="butt" stroke-linejoin="miter" stroke-miterlimit="8" stroke-opacity="1" fill="none" fill-rule="evenodd" transform="matrix(-1 0 0 1 853.501 1113.5)"/><path d="M595.5 1226.5 714.903 1489.29" stroke="#000000" stroke-width="9.16667" stroke-linecap="butt" stroke-linejoin="miter" stroke-miterlimit="8" stroke-opacity="1" fill="none" fill-rule="evenodd"/><path d="M0 0 272.364 139.609" stroke="#000000" stroke-width="9.16667" stroke-linecap="butt" stroke-linejoin="miter" stroke-miterlimit="8" stroke-opacity="1" fill="none" fill-rule="evenodd" transform="matrix(-1 0 0 1 603.864 1234.5)"/><path d="M0 0 193.807 289.494" stroke="#000000" stroke-width="9.16667" stroke-linecap="butt" stroke-linejoin="miter" stroke-miterlimit="8" stroke-opacity="1" fill="none" fill-rule="evenodd" transform="matrix(1 0 0 -1 1058.5 1376.99)"/><path d="M0 0 340.416 114.822" stroke="#000000" stroke-width="9.16667" stroke-linecap="butt" stroke-linejoin="miter" stroke-miterlimit="8" stroke-opacity="1" fill="none" fill-rule="evenodd" transform="matrix(-1 0 0 1 1054.92 1378.5)"/><path d="M891.549 1200.87 859.01 1117.15 931.379 1170.35 921.422 1177.98 1063.54 1363.47 1043.63 1378.73 901.507 1193.24Z" fill="#FFC000" fill-rule="evenodd" fill-opacity="1"/><path d="M838.5 1116C838.5 1105.23 847.23 1096.5 858 1096.5 868.77 1096.5 877.5 1105.23 877.5 1116 877.5 1126.77 868.77 1135.5 858 1135.5 847.23 1135.5 838.5 1126.77 838.5 1116Z" stroke="#000000" stroke-width="6.875" stroke-linecap="butt" stroke-linejoin="miter" stroke-miterlimit="8" stroke-opacity="1" fill="#C00000" fill-rule="evenodd" fill-opacity="1"/><path d="M419.5 972C419.5 961.23 428.23 952.5 439 952.5 449.77 952.5 458.5 961.23 458.5 972 458.5 982.769 449.77 991.5 439 991.5 428.23 991.5 419.5 982.769 419.5 972Z" stroke="#000000" stroke-width="6.875" stroke-linecap="butt" stroke-linejoin="miter" stroke-miterlimit="8" stroke-opacity="1" fill="#00B050" fill-rule="evenodd" fill-opacity="1"/><path d="M618.5 831C618.5 820.231 627.23 811.5 638 811.5 648.77 811.5 657.5 820.231 657.5 831 657.5 841.77 648.77 850.5 638 850.5 627.23 850.5 618.5 841.77 618.5 831Z" stroke="#000000" stroke-width="6.875" stroke-linecap="butt" stroke-linejoin="miter" stroke-miterlimit="8" stroke-opacity="1" fill="#00B050" fill-rule="evenodd" fill-opacity="1"/><path d="M833.5 680C833.5 669.23 842.231 660.5 853 660.5 863.77 660.5 872.5 669.23 872.5 680 872.5 690.77 863.77 699.5 853 699.5 842.231 699.5 833.5 690.77 833.5 680Z" stroke="#000000" stroke-width="6.875" stroke-linecap="butt" stroke-linejoin="miter" stroke-miterlimit="8" stroke-opacity="1" fill="#00B050" fill-rule="evenodd" fill-opacity="1"/><path d="M1020.5 920C1020.5 909.231 1029.23 900.5 1040 900.5 1050.77 900.5 1059.5 909.231 1059.5 920 1059.5 930.77 1050.77 939.5 1040 939.5 1029.23 939.5 1020.5 930.77 1020.5 920Z" stroke="#000000" stroke-width="6.875" stroke-linecap="butt" stroke-linejoin="miter" stroke-miterlimit="8" stroke-opacity="1" fill="#00B050" fill-rule="evenodd" fill-opacity="1"/><path d="M1237.5 1089C1237.5 1078.23 1246.23 1069.5 1257 1069.5 1267.77 1069.5 1276.5 1078.23 1276.5 1089 1276.5 1099.77 1267.77 1108.5 1257 1108.5 1246.23 1108.5 1237.5 1099.77 1237.5 1089Z" stroke="#000000" stroke-width="6.875" stroke-linecap="butt" stroke-linejoin="miter" stroke-miterlimit="8" stroke-opacity="1" fill="#00B050" fill-rule="evenodd" fill-opacity="1"/><path d="M1039.5 1377C1039.5 1366.23 1048.23 1357.5 1059 1357.5 1069.77 1357.5 1078.5 1366.23 1078.5 1377 1078.5 1387.77 1069.77 1396.5 1059 1396.5 1048.23 1396.5 1039.5 1387.77 1039.5 1377Z" stroke="#000000" stroke-width="6.875" stroke-linecap="butt" stroke-linejoin="miter" stroke-miterlimit="8" stroke-opacity="1" fill="#00B050" fill-rule="evenodd" fill-opacity="1"/><path d="M695.5 1497C695.5 1486.23 704.23 1477.5 715 1477.5 725.77 1477.5 734.5 1486.23 734.5 1497 734.5 1507.77 725.77 1516.5 715 1516.5 704.23 1516.5 695.5 1507.77 695.5 1497Z" stroke="#000000" stroke-width="6.875" stroke-linecap="butt" stroke-linejoin="miter" stroke-miterlimit="8" stroke-opacity="1" fill="#00B050" fill-rule="evenodd" fill-opacity="1"/><path d="M580.5 1234C580.5 1223.23 589.231 1214.5 600 1214.5 610.77 1214.5 619.5 1223.23 619.5 1234 619.5 1244.77 610.77 1253.5 600 1253.5 589.231 1253.5 580.5 1244.77 580.5 1234Z" stroke="#000000" stroke-width="6.875" stroke-linecap="butt" stroke-linejoin="miter" stroke-miterlimit="8" stroke-opacity="1" fill="#00B050" fill-rule="evenodd" fill-opacity="1"/><path d="M2369.5 1090.74 3195.5 515.5 4021.5 1090.74 3706 2021.5 2685 2021.5Z" stroke="#000000" stroke-width="9.16667" stroke-linecap="butt" stroke-linejoin="miter" stroke-miterlimit="8" stroke-opacity="0.988235" fill="none" fill-rule="evenodd"/><path d="M0 0 382.441 570.447" stroke="#000000" stroke-width="9.16667" stroke-linecap="butt" stroke-linejoin="miter" stroke-miterlimit="8" stroke-opacity="1" fill="none" fill-rule="evenodd" transform="matrix(1 0 0 -1 3195.5 1357.95)"/><path d="M3195.46 1357.7 2776.5 812.5" stroke="#000000" stroke-width="9.16667" stroke-linecap="butt" stroke-linejoin="miter" stroke-miterlimit="8" stroke-opacity="1" fill="none" fill-rule="evenodd"/><path d="M3867.15 1535.41 3195.5 1357.5" stroke="#000000" stroke-width="9.16667" stroke-linecap="butt" stroke-linejoin="miter" stroke-miterlimit="8" stroke-opacity="1" fill="none" fill-rule="evenodd"/><path d="M0 0 654.682 225.087" stroke="#000000" stroke-width="9.16667" stroke-linecap="butt" stroke-linejoin="miter" stroke-miterlimit="8" stroke-opacity="1" fill="none" fill-rule="evenodd" transform="matrix(-1 0 0 1 3192.18 1357.5)"/><text fill="#000000" fill-opacity="1" font-family="Aptos,Aptos_MSFontService,sans-serif" font-style="normal" font-variant="normal" font-weight="700" font-stretch="normal" font-size="48" text-anchor="start" direction="ltr" writing-mode="lr-tb" unicode-bidi="normal" text-decoration="none" transform="matrix(1 0 0 1 2773.93 1260)">vv</text><path d="M3211.7 2020.77 3195.5 1357.5" stroke="#000000" stroke-width="9.16667" stroke-linecap="butt" stroke-linejoin="miter" stroke-miterlimit="8" stroke-opacity="1" fill="none" fill-rule="evenodd"/><path d="M3176.62 898.342 2993.5 664.5" stroke="#000000" stroke-width="9.16667" stroke-linecap="butt" stroke-linejoin="miter" stroke-miterlimit="8" stroke-opacity="1" fill="none" fill-rule="evenodd"/><path d="M0 0 182.113 263.397" stroke="#000000" stroke-width="9.16667" stroke-linecap="butt" stroke-linejoin="miter" stroke-miterlimit="8" stroke-opacity="1" fill="none" fill-rule="evenodd" transform="matrix(1 0 0 -1 3177.5 897.897)"/><path d="M0 0 191.221 199.937" stroke="#000000" stroke-width="9.16667" stroke-linecap="butt" stroke-linejoin="miter" stroke-miterlimit="8" stroke-opacity="1" fill="none" fill-rule="evenodd" transform="matrix(1 0 0 -1 2990.5 1094.44)"/><path d="M3394.76 1072.97 3175.5 894.5" stroke="#000000" stroke-width="9.16667" stroke-linecap="butt" stroke-linejoin="miter" stroke-miterlimit="8" stroke-opacity="1" fill="none" fill-rule="evenodd"/><path d="M3648.66 1214.45 3386.5 1064.5" stroke="#000000" stroke-width="9.16667" stroke-linecap="butt" stroke-linejoin="miter" stroke-miterlimit="8" stroke-opacity="1" fill="none" fill-rule="evenodd"/><path d="M0 0 140.063 285.224" stroke="#000000" stroke-width="9.16667" stroke-linecap="butt" stroke-linejoin="miter" stroke-miterlimit="8" stroke-opacity="1" fill="none" fill-rule="evenodd" transform="matrix(1 0 0 -1 3648.5 1214.72)"/><path d="M3945.07 1333.09 3643.5 1211.5" stroke="#000000" stroke-width="9.16667" stroke-linecap="butt" stroke-linejoin="miter" stroke-miterlimit="8" stroke-opacity="1" fill="none" fill-rule="evenodd"/><path d="M0 0 96.3157 227.698" stroke="#000000" stroke-width="9.16667" stroke-linecap="butt" stroke-linejoin="miter" stroke-miterlimit="8" stroke-opacity="1" fill="none" fill-rule="evenodd" transform="matrix(1 0 0 -1 3552.5 1447.2)"/><path d="M3485.29 1738.88 3203.5 1687.5" stroke="#000000" stroke-width="9.16667" stroke-linecap="butt" stroke-linejoin="miter" stroke-miterlimit="8" stroke-opacity="1" fill="none" fill-rule="evenodd"/><path d="M3788.51 1765.19 3485.5 1739.5" stroke="#000000" stroke-width="9.16667" stroke-linecap="butt" stroke-linejoin="miter" stroke-miterlimit="8" stroke-opacity="1" fill="none" fill-rule="evenodd"/><path d="M0 0 64.1205 292.548" stroke="#000000" stroke-width="9.16667" stroke-linecap="butt" stroke-linejoin="miter" stroke-miterlimit="8" stroke-opacity="1" fill="none" fill-rule="evenodd" transform="matrix(1 0 0 -1 3488.5 1739.05)"/><path d="M0 0 18.0554 273.63" stroke="#000000" stroke-width="9.16667" stroke-linecap="butt" stroke-linejoin="miter" stroke-miterlimit="8" stroke-opacity="1" fill="none" fill-rule="evenodd" transform="matrix(1 0 0 -1 3470.5 2016.13)"/><path d="M2936.68 2021.27 2903.5 1739.5" stroke="#000000" stroke-width="9.16667" stroke-linecap="butt" stroke-linejoin="miter" stroke-miterlimit="8" stroke-opacity="1" fill="none" fill-rule="evenodd"/><path d="M0 0 297.351 55" stroke="#000000" stroke-width="9.16667" stroke-linecap="butt" stroke-linejoin="miter" stroke-miterlimit="8" stroke-opacity="1" fill="none" fill-rule="evenodd" transform="matrix(1 0 0 -1 2606.5 1794.5)"/><path d="M2854.5 1470.5 2903.5 1742.21" stroke="#000000" stroke-width="9.16667" stroke-linecap="butt" stroke-linejoin="miter" stroke-miterlimit="8" stroke-opacity="1" fill="none" fill-rule="evenodd"/><path d="M0 0 301.456 51.3759" stroke="#000000" stroke-width="9.16667" stroke-linecap="butt" stroke-linejoin="miter" stroke-miterlimit="8" stroke-opacity="1" fill="none" fill-rule="evenodd" transform="matrix(-1 0 0 1 3199.96 1687.5)"/><path d="M2570.5 949.5 2732.38 1211.47" stroke="#000000" stroke-width="9.16667" stroke-linecap="butt" stroke-linejoin="miter" stroke-miterlimit="8" stroke-opacity="1" fill="none" fill-rule="evenodd"/><path d="M0 0 255.002 120.545" stroke="#000000" stroke-width="9.16667" stroke-linecap="butt" stroke-linejoin="miter" stroke-miterlimit="8" stroke-opacity="1" fill="none" fill-rule="evenodd" transform="matrix(-1 0 0 1 2990.5 1094.5)"/><path d="M2731.5 1207.5 2850.9 1470.29" stroke="#000000" stroke-width="9.16667" stroke-linecap="butt" stroke-linejoin="miter" stroke-miterlimit="8" stroke-opacity="1" fill="none" fill-rule="evenodd"/><path d="M0 0 272.364 139.609" stroke="#000000" stroke-width="9.16667" stroke-linecap="butt" stroke-linejoin="miter" stroke-miterlimit="8" stroke-opacity="1" fill="none" fill-rule="evenodd" transform="matrix(-1 0 0 1 2739.86 1214.5)"/><text fill="#000000" fill-opacity="1" font-family="Aptos,Aptos_MSFontService,sans-serif" font-style="normal" font-variant="normal" font-weight="700" font-stretch="normal" font-size="46" text-anchor="start" direction="ltr" writing-mode="lr-tb" unicode-bidi="normal" text-decoration="none" transform="matrix(1 0 0 1 3116.21 1217)">voh</text><path d="M0 0 193.807 289.494" stroke="#000000" stroke-width="9.16667" stroke-linecap="butt" stroke-linejoin="miter" stroke-miterlimit="8" stroke-opacity="1" fill="none" fill-rule="evenodd" transform="matrix(1 0 0 -1 3195.5 1357.99)"/><path d="M0 0 340.416 114.822" stroke="#000000" stroke-width="9.16667" stroke-linecap="butt" stroke-linejoin="miter" stroke-miterlimit="8" stroke-opacity="1" fill="none" fill-rule="evenodd" transform="matrix(-1 0 0 1 3191.92 1358.5)"/><path d="M3027.92 1181.55 2995.38 1097.84 3067.75 1151.04 3057.8 1158.67 3199.92 1344.15 3180 1359.41 3037.88 1173.92Z" fill="#FFC000" fill-rule="evenodd" fill-opacity="1"/><path d="M2716.5 1219C2716.5 1208.23 2725.23 1199.5 2736 1199.5 2746.77 1199.5 2755.5 1208.23 2755.5 1219 2755.5 1229.77 2746.77 1238.5 2736 1238.5 2725.23 1238.5 2716.5 1229.77 2716.5 1219Z" stroke="#000000" stroke-width="6.875" stroke-linecap="butt" stroke-linejoin="miter" stroke-miterlimit="8" stroke-opacity="1" fill="#C00000" fill-rule="evenodd" fill-opacity="1"/><path d="M2555.5 953C2555.5 942.231 2564.23 933.5 2575 933.5 2585.77 933.5 2594.5 942.231 2594.5 953 2594.5 963.77 2585.77 972.5 2575 972.5 2564.23 972.5 2555.5 963.77 2555.5 953Z" stroke="#000000" stroke-width="6.875" stroke-linecap="butt" stroke-linejoin="miter" stroke-miterlimit="8" stroke-opacity="1" fill="#00B050" fill-rule="evenodd" fill-opacity="1"/><path d="M2754.5 811C2754.5 800.231 2763.23 791.5 2774 791.5 2784.77 791.5 2793.5 800.231 2793.5 811 2793.5 821.77 2784.77 830.5 2774 830.5 2763.23 830.5 2754.5 821.77 2754.5 811Z" stroke="#000000" stroke-width="6.875" stroke-linecap="butt" stroke-linejoin="miter" stroke-miterlimit="8" stroke-opacity="1" fill="#00B050" fill-rule="evenodd" fill-opacity="1"/><path d="M2350.5 1091.5C2350.5 1081.01 2359.23 1072.5 2370 1072.5 2380.77 1072.5 2389.5 1081.01 2389.5 1091.5 2389.5 1101.99 2380.77 1110.5 2370 1110.5 2359.23 1110.5 2350.5 1101.99 2350.5 1091.5Z" stroke="#000000" stroke-width="6.875" stroke-linecap="butt" stroke-linejoin="miter" stroke-miterlimit="8" stroke-opacity="1" fill="#00B050" fill-rule="evenodd" fill-opacity="1"/><path d="M2972.5 1097C2972.5 1086.23 2981.23 1077.5 2992 1077.5 3002.77 1077.5 3011.5 1086.23 3011.5 1097 3011.5 1107.77 3002.77 1116.5 2992 1116.5 2981.23 1116.5 2972.5 1107.77 2972.5 1097Z" stroke="#000000" stroke-width="6.875" stroke-linecap="butt" stroke-linejoin="miter" stroke-miterlimit="8" stroke-opacity="1" fill="#00B050" fill-rule="evenodd" fill-opacity="1"/><path d="M2518.5 1587C2518.5 1576.23 2527.23 1567.5 2538 1567.5 2548.77 1567.5 2557.5 1576.23 2557.5 1587 2557.5 1597.77 2548.77 1606.5 2538 1606.5 2527.23 1606.5 2518.5 1597.77 2518.5 1587Z" stroke="#000000" stroke-width="6.875" stroke-linecap="butt" stroke-linejoin="miter" stroke-miterlimit="8" stroke-opacity="1" fill="#00B050" fill-rule="evenodd" fill-opacity="1"/><path d="M3175.5 1358C3175.5 1347.23 3184.23 1338.5 3195 1338.5 3205.77 1338.5 3214.5 1347.23 3214.5 1358 3214.5 1368.77 3205.77 1377.5 3195 1377.5 3184.23 1377.5 3175.5 1368.77 3175.5 1358Z" stroke="#000000" stroke-width="6.875" stroke-linecap="butt" stroke-linejoin="miter" stroke-miterlimit="8" stroke-opacity="1" fill="#00B050" fill-rule="evenodd" fill-opacity="1"/><path d="M2831.5 1478C2831.5 1467.23 2840.23 1458.5 2851 1458.5 2861.77 1458.5 2870.5 1467.23 2870.5 1478 2870.5 1488.77 2861.77 1497.5 2851 1497.5 2840.23 1497.5 2831.5 1488.77 2831.5 1478Z" stroke="#000000" stroke-width="6.875" stroke-linecap="butt" stroke-linejoin="miter" stroke-miterlimit="8" stroke-opacity="1" fill="#00B050" fill-rule="evenodd" fill-opacity="1"/><path d="M2440.5 1362C2440.5 1351.23 2449.23 1342.5 2460 1342.5 2470.77 1342.5 2479.5 1351.23 2479.5 1362 2479.5 1372.77 2470.77 1381.5 2460 1381.5 2449.23 1381.5 2440.5 1372.77 2440.5 1362Z" stroke="#000000" stroke-width="6.875" stroke-linecap="butt" stroke-linejoin="miter" stroke-miterlimit="8" stroke-opacity="1" fill="#00B050" fill-rule="evenodd" fill-opacity="1"/><text fill="#000000" fill-opacity="1" font-family="Aptos,Aptos_MSFontService,sans-serif" font-style="normal" font-variant="normal" font-weight="700" font-stretch="normal" font-size="46" text-anchor="start" direction="ltr" writing-mode="lr-tb" unicode-bidi="normal" text-decoration="none" transform="matrix(1 0 0 1 988.01 1232)">voh</text></g></g></svg>