<svg width="1178" height="1040" xmlns="http://www.w3.org/2000/svg" xmlns:xlink="http://www.w3.org/1999/xlink" xml:space="preserve" overflow="hidden"><g transform="translate(-1109 -678)"><g><path d="M0 0 120.916 282.138" stroke="#000000" stroke-width="6.875" stroke-linecap="butt" stroke-linejoin="miter" stroke-miterlimit="8" stroke-opacity="1" fill="none" fill-rule="evenodd" transform="matrix(1 0 0 -1 1320.5 1048.64)"/><path d="M0 0 120.916 282.138" stroke="#000000" stroke-width="6.875" stroke-linecap="butt" stroke-linejoin="miter" stroke-miterlimit="8" stroke-opacity="1" fill="none" fill-rule="evenodd" transform="matrix(1 0 0 -1 1579.5 1048.64)"/><path d="M0 0 120.916 282.138" stroke="#000000" stroke-width="6.875" stroke-linecap="butt" stroke-linejoin="miter" stroke-miterlimit="8" stroke-opacity="1" fill="none" fill-rule="evenodd" transform="matrix(1 0 0 -1 1838.5 1048.64)"/><path d="M0 0 120.916 282.138" stroke="#000000" stroke-width="6.875" stroke-linecap="butt" stroke-linejoin="miter" stroke-miterlimit="8" stroke-opacity="1" fill="none" fill-rule="evenodd" transform="matrix(1 0 0 -1 2079.5 1048.64)"/><path d="M0 0 55.4194 287.595" stroke="#000000" stroke-width="6.875" stroke-linecap="butt" stroke-linejoin="miter" stroke-miterlimit="8" stroke-opacity="1" fill="none" fill-rule="evenodd" transform="matrix(1 0 0 -1 1265.5 1336.1)"/><path d="M0 0 55.4194 287.595" stroke="#000000" stroke-width="6.875" stroke-linecap="butt" stroke-linejoin="miter" stroke-miterlimit="8" stroke-opacity="1" fill="none" fill-rule="evenodd" transform="matrix(1 0 0 -1 1524.5 1336.1)"/><path d="M0 0 55.4194 287.595" stroke="#000000" stroke-width="6.875" stroke-linecap="butt" stroke-linejoin="miter" stroke-miterlimit="8" stroke-opacity="1" fill="none" fill-rule="evenodd" transform="matrix(1 0 0 -1 2024.5 1336.1)"/><path d="M0 0 55.4194 287.595" stroke="#000000" stroke-width="6.875" stroke-linecap="butt" stroke-linejoin="miter" stroke-miterlimit="8" stroke-opacity="1" fill="none" fill-rule="evenodd" transform="matrix(1 0 0 -1 1783.5 1336.1)"/><path d="M1293.21 1618.1 1265.5 1330.5" stroke="#000000" stroke-width="6.875" stroke-linecap="butt" stroke-linejoin="miter" stroke-miterlimit="8" stroke-opacity="1" fill="none" fill-rule="evenodd"/><path d="M1552.21 1618.1 1524.5 1330.5" stroke="#000000" stroke-width="6.875" stroke-linecap="butt" stroke-linejoin="miter" stroke-miterlimit="8" stroke-opacity="1" fill="none" fill-rule="evenodd"/><path d="M1811.21 1624.1 1783.5 1336.5" stroke="#000000" stroke-width="6.875" stroke-linecap="butt" stroke-linejoin="miter" stroke-miterlimit="8" stroke-opacity="1" fill="none" fill-rule="evenodd"/><path d="M2053.21 1624.1 2025.5 1336.5" stroke="#000000" stroke-width="6.875" stroke-linecap="butt" stroke-linejoin="miter" stroke-miterlimit="8" stroke-opacity="1" fill="none" fill-rule="evenodd"/><path d="M1265.5 1336.5 2024.58 1336.5" stroke="#000000" stroke-width="6.875" stroke-linecap="butt" stroke-linejoin="miter" stroke-miterlimit="8" stroke-opacity="1" fill="none" fill-rule="evenodd"/><path d="M1292.5 1618.5 2051.58 1618.5" stroke="#000000" stroke-width="6.875" stroke-linecap="butt" stroke-linejoin="miter" stroke-miterlimit="8" stroke-opacity="1" fill="none" fill-rule="evenodd"/><path d="M1320.5 1049.5 2079.58 1049.5" stroke="#000000" stroke-width="6.875" stroke-linecap="butt" stroke-linejoin="miter" stroke-miterlimit="8" stroke-opacity="1" fill="none" fill-rule="evenodd"/><path d="M1441.5 766.5 2200.58 766.5" stroke="#000000" stroke-width="6.875" stroke-linecap="butt" stroke-linejoin="miter" stroke-miterlimit="8" stroke-opacity="1" fill="none" fill-rule="evenodd"/><text fill="#000000" fill-opacity="1" font-family="Aptos,Aptos_MSFontService,sans-serif" font-style="normal" font-variant="normal" font-weight="400" font-stretch="normal" font-size="32" text-anchor="start" direction="ltr" writing-mode="lr-tb" unicode-bidi="normal" text-decoration="none" transform="matrix(1 0 0 1 1463.21 807)">v0</text><text fill="#000000" fill-opacity="1" font-family="Aptos,Aptos_MSFontService,sans-serif" font-style="normal" font-variant="normal" font-weight="400" font-stretch="normal" font-size="32" text-anchor="start" direction="ltr" writing-mode="lr-tb" unicode-bidi="normal" text-decoration="none" transform="matrix(1 0 0 1 1339.31 1094)">v4</text><text fill="#000000" fill-opacity="1" font-family="Aptos,Aptos_MSFontService,sans-serif" font-style="normal" font-variant="normal" font-weight="400" font-stretch="normal" font-size="32" text-anchor="start" direction="ltr" writing-mode="lr-tb" unicode-bidi="normal" text-decoration="none" transform="matrix(1 0 0 1 1297.58 1382)">v8</text><text fill="#000000" fill-opacity="1" font-family="Aptos,Aptos_MSFontService,sans-serif" font-style="normal" font-variant="normal" font-weight="400" font-stretch="normal" font-size="32" text-anchor="start" direction="ltr" writing-mode="lr-tb" unicode-bidi="normal" text-decoration="none" transform="matrix(1 0 0 1 1318.13 1653)">v12</text><path d="M7.31771e-06-3.4375 146.613-3.43719 146.613 3.43781-7.31771e-06 3.4375ZM142.03-13.7497 169.53 0.000360892 142.03 13.7503Z" fill="#00B050" fill-rule="nonzero" fill-opacity="1" transform="matrix(-1 0 0 1 1899.03 742.5)"/><text fill="#00B050" fill-opacity="1" font-family="Aptos,Aptos_MSFontService,sans-serif" font-style="normal" font-variant="normal" font-weight="400" font-stretch="normal" font-size="37" text-anchor="start" direction="ltr" writing-mode="lr-tb" unicode-bidi="normal" text-decoration="none" transform="matrix(1 0 0 1 1775.56 730)">h_top</text><path d="M7.31771e-06-3.4375 146.613-3.43719 146.613 3.43781-7.31771e-06 3.4375ZM142.03-13.7497 169.53 0.000360892 142.03 13.7503Z" fill="#00B050" fill-rule="nonzero" fill-opacity="1" transform="matrix(1 -1.22465e-16 -1.22465e-16 -1 1623.5 1641.5)"/><text fill="#00B050" fill-opacity="1" font-family="Aptos,Aptos_MSFontService,sans-serif" font-style="normal" font-variant="normal" font-weight="400" font-stretch="normal" font-size="37" text-anchor="start" direction="ltr" writing-mode="lr-tb" unicode-bidi="normal" text-decoration="none" transform="matrix(1 0 0 1 1625.31 1683)">h_bottom</text><path d="M3.34548-0.79006 37.5947 144.237 30.9037 145.817-3.34548 0.79006ZM46.5777 137.406 39.5163 167.33 19.8139 143.726Z" fill="#00B050" fill-rule="nonzero" fill-opacity="1" transform="matrix(-1 0 0 1 1281.02 1110.5)"/><text fill="#00B050" fill-opacity="1" font-family="Aptos,Aptos_MSFontService,sans-serif" font-style="normal" font-variant="normal" font-weight="400" font-stretch="normal" font-size="37" text-anchor="start" direction="ltr" writing-mode="lr-tb" unicode-bidi="normal" text-decoration="none" transform="matrix(1 0 0 1 1145.82 1190)">h_left</text><text fill="#00B050" fill-opacity="1" font-family="Aptos,Aptos_MSFontService,sans-serif" font-style="normal" font-variant="normal" font-weight="400" font-stretch="normal" font-size="37" text-anchor="start" direction="ltr" writing-mode="lr-tb" unicode-bidi="normal" text-decoration="none" transform="matrix(1 0 0 1 2105.04 1210)">h_right</text><path d="M3.37918-0.630531 28.5811 134.433 21.8228 135.694-3.37918 0.630531ZM37.878 128.036 29.4055 157.592 10.8446 133.08Z" fill="#00B050" fill-rule="nonzero" fill-opacity="1" transform="matrix(1 0 0 -1 2072.5 1278.09)"/><path d="M1312 1047C1312 1039.82 1317.82 1034 1325 1034 1332.18 1034 1338 1039.82 1338 1047 1338 1054.18 1332.18 1060 1325 1060 1317.82 1060 1312 1054.18 1312 1047Z" fill="#000000" fill-rule="evenodd" fill-opacity="1"/><path d="M1570 1048C1570 1040.82 1575.82 1035 1583 1035 1590.18 1035 1596 1040.82 1596 1048 1596 1055.18 1590.18 1061 1583 1061 1575.82 1061 1570 1055.18 1570 1048Z" fill="#000000" fill-rule="evenodd" fill-opacity="1"/><path d="M1829 1047C1829 1039.82 1834.82 1034 1842 1034 1849.18 1034 1855 1039.82 1855 1047 1855 1054.18 1849.18 1060 1842 1060 1834.82 1060 1829 1054.18 1829 1047Z" fill="#000000" fill-rule="evenodd" fill-opacity="1"/><path d="M2067 1049C2067 1041.82 2072.82 1036 2080 1036 2087.18 1036 2093 1041.82 2093 1049 2093 1056.18 2087.18 1062 2080 1062 2072.82 1062 2067 1056.18 2067 1049Z" fill="#000000" fill-rule="evenodd" fill-opacity="1"/><path d="M1256 1333C1256 1325.82 1261.82 1320 1269 1320 1276.18 1320 1282 1325.82 1282 1333 1282 1340.18 1276.18 1346 1269 1346 1261.82 1346 1256 1340.18 1256 1333Z" fill="#000000" fill-rule="evenodd" fill-opacity="1"/><path d="M1514 1334.5C1514 1327.6 1519.82 1322 1527 1322 1534.18 1322 1540 1327.6 1540 1334.5 1540 1341.4 1534.18 1347 1527 1347 1519.82 1347 1514 1341.4 1514 1334.5Z" fill="#000000" fill-rule="evenodd" fill-opacity="1"/><path d="M1773 1334C1773 1326.82 1778.82 1321 1786 1321 1793.18 1321 1799 1326.82 1799 1334 1799 1341.18 1793.18 1347 1786 1347 1778.82 1347 1773 1341.18 1773 1334Z" fill="#000000" fill-rule="evenodd" fill-opacity="1"/><path d="M2012 1336C2012 1328.82 2017.82 1323 2025 1323 2032.18 1323 2038 1328.82 2038 1336 2038 1343.18 2032.18 1349 2025 1349 2017.82 1349 2012 1343.18 2012 1336Z" fill="#000000" fill-rule="evenodd" fill-opacity="1"/><path d="M1285 1616C1285 1608.82 1290.82 1603 1298 1603 1305.18 1603 1311 1608.82 1311 1616 1311 1623.18 1305.18 1629 1298 1629 1290.82 1629 1285 1623.18 1285 1616Z" fill="#000000" fill-rule="evenodd" fill-opacity="1"/><path d="M1543 1617C1543 1609.82 1548.82 1604 1556 1604 1563.18 1604 1569 1609.82 1569 1617 1569 1624.18 1563.18 1630 1556 1630 1548.82 1630 1543 1624.18 1543 1617Z" fill="#000000" fill-rule="evenodd" fill-opacity="1"/><path d="M1802 1616C1802 1608.82 1807.82 1603 1815 1603 1822.18 1603 1828 1608.82 1828 1616 1828 1623.18 1822.18 1629 1815 1629 1807.82 1629 1802 1623.18 1802 1616Z" fill="#000000" fill-rule="evenodd" fill-opacity="1"/><path d="M2041 1619C2041 1611.82 2046.82 1606 2054 1606 2061.18 1606 2067 1611.82 2067 1619 2067 1626.18 2061.18 1632 2054 1632 2046.82 1632 2041 1626.18 2041 1619Z" fill="#000000" fill-rule="evenodd" fill-opacity="1"/><path d="M1428 764C1428 756.82 1433.82 751 1441 751 1448.18 751 1454 756.82 1454 764 1454 771.18 1448.18 777 1441 777 1433.82 777 1428 771.18 1428 764Z" fill="#000000" fill-rule="evenodd" fill-opacity="1"/><path d="M1686 765C1686 757.82 1691.82 752 1699 752 1706.18 752 1712 757.82 1712 765 1712 772.18 1706.18 778 1699 778 1691.82 778 1686 772.18 1686 765Z" fill="#000000" fill-rule="evenodd" fill-opacity="1"/><path d="M1945 764C1945 756.82 1950.82 751 1958 751 1965.18 751 1971 756.82 1971 764 1971 771.18 1965.18 777 1958 777 1950.82 777 1945 771.18 1945 764Z" fill="#000000" fill-rule="evenodd" fill-opacity="1"/><path d="M2183 766C2183 758.82 2188.82 753 2196 753 2203.18 753 2209 758.82 2209 766 2209 773.18 2203.18 779 2196 779 2188.82 779 2183 773.18 2183 766Z" fill="#000000" fill-rule="evenodd" fill-opacity="1"/><text fill="#215F9A" fill-opacity="1" font-family="Aptos,Aptos_MSFontService,sans-serif" font-style="normal" font-variant="normal" font-weight="400" font-stretch="normal" font-size="14" text-anchor="start" direction="ltr" writing-mode="lr-tb" unicode-bidi="normal" text-decoration="none" transform="matrix(1 0 0 1 1474 1033)">v5_texcoords[0]</text><text fill="#215F9A" fill-opacity="1" font-family="Aptos,Aptos_MSFontService,sans-serif" font-style="normal" font-variant="normal" font-weight="400" font-stretch="normal" font-size="14" text-anchor="start" direction="ltr" writing-mode="lr-tb" unicode-bidi="normal" text-decoration="none" transform="matrix(1 0 0 1 1462.73 1070)">v5_texcoords[1]</text><text fill="#215F9A" fill-opacity="1" font-family="Aptos,Aptos_MSFontService,sans-serif" font-style="normal" font-variant="normal" font-weight="400" font-stretch="normal" font-size="14" text-anchor="start" direction="ltr" writing-mode="lr-tb" unicode-bidi="normal" text-decoration="none" transform="matrix(1 0 0 1 1603.58 1033)">v5_texcoords[3]</text><text fill="#215F9A" fill-opacity="1" font-family="Aptos,Aptos_MSFontService,sans-serif" font-style="normal" font-variant="normal" font-weight="400" font-stretch="normal" font-size="14" text-anchor="start" direction="ltr" writing-mode="lr-tb" unicode-bidi="normal" text-decoration="none" transform="matrix(1 0 0 1 1601.33 1071)">v5_texcoords[2]</text><text fill="#215F9A" fill-opacity="1" font-family="Aptos,Aptos_MSFontService,sans-serif" font-style="normal" font-variant="normal" font-weight="400" font-stretch="normal" font-size="14" text-anchor="start" direction="ltr" writing-mode="lr-tb" unicode-bidi="normal" text-decoration="none" transform="matrix(1 0 0 1 1731.87 1033)">v6_texcoords[1]</text><text fill="#215F9A" fill-opacity="1" font-family="Aptos,Aptos_MSFontService,sans-serif" font-style="normal" font-variant="normal" font-weight="400" font-stretch="normal" font-size="14" text-anchor="start" direction="ltr" writing-mode="lr-tb" unicode-bidi="normal" text-decoration="none" transform="matrix(1 0 0 1 1722.99 1069)">v6_texcoords[2]</text><text fill="#215F9A" fill-opacity="1" font-family="Aptos,Aptos_MSFontService,sans-serif" font-style="normal" font-variant="normal" font-weight="400" font-stretch="normal" font-size="14" text-anchor="start" direction="ltr" writing-mode="lr-tb" unicode-bidi="normal" text-decoration="none" transform="matrix(1 0 0 1 1404.26 1321)">v9_texcoords[3]</text><text fill="#215F9A" fill-opacity="1" font-family="Aptos,Aptos_MSFontService,sans-serif" font-style="normal" font-variant="normal" font-weight="400" font-stretch="normal" font-size="14" text-anchor="start" direction="ltr" writing-mode="lr-tb" unicode-bidi="normal" text-decoration="none" transform="matrix(1 0 0 1 1404.26 1358)">v9_texcoords[0]</text><text fill="#215F9A" fill-opacity="1" font-family="Aptos,Aptos_MSFontService,sans-serif" font-style="normal" font-variant="normal" font-weight="400" font-stretch="normal" font-size="14" text-anchor="start" direction="ltr" writing-mode="lr-tb" unicode-bidi="normal" text-decoration="none" transform="matrix(1 0 0 1 1667.94 1356)">v10_texcoords[3]</text><text fill="#215F9A" fill-opacity="1" font-family="Aptos,Aptos_MSFontService,sans-serif" font-style="normal" font-variant="normal" font-weight="400" font-stretch="normal" font-size="14" text-anchor="start" direction="ltr" writing-mode="lr-tb" unicode-bidi="normal" text-decoration="none" transform="matrix(1 0 0 1 1671.4 1321)">v10_texcoords[2]</text><text fill="#215F9A" fill-opacity="1" font-family="Aptos,Aptos_MSFontService,sans-serif" font-style="normal" font-variant="normal" font-weight="400" font-stretch="normal" font-size="14" text-anchor="start" direction="ltr" writing-mode="lr-tb" unicode-bidi="normal" text-decoration="none" transform="matrix(1 0 0 1 1866.1 1033)">v6_texcoords[0]</text><text fill="#215F9A" fill-opacity="1" font-family="Aptos,Aptos_MSFontService,sans-serif" font-style="normal" font-variant="normal" font-weight="400" font-stretch="normal" font-size="14" text-anchor="start" direction="ltr" writing-mode="lr-tb" unicode-bidi="normal" text-decoration="none" transform="matrix(1 0 0 1 1855.78 1071)">v6_texcoords[3]</text><text fill="#215F9A" fill-opacity="1" font-family="Aptos,Aptos_MSFontService,sans-serif" font-style="normal" font-variant="normal" font-weight="400" font-stretch="normal" font-size="14" text-anchor="start" direction="ltr" writing-mode="lr-tb" unicode-bidi="normal" text-decoration="none" transform="matrix(1 0 0 1 1542.5 1322)">v9_texcoords[2]</text><text fill="#215F9A" fill-opacity="1" font-family="Aptos,Aptos_MSFontService,sans-serif" font-style="normal" font-variant="normal" font-weight="400" font-stretch="normal" font-size="14" text-anchor="start" direction="ltr" writing-mode="lr-tb" unicode-bidi="normal" text-decoration="none" transform="matrix(1 0 0 1 1543.74 1355)">v9_texcoords[1]</text><text fill="#215F9A" fill-opacity="1" font-family="Aptos,Aptos_MSFontService,sans-serif" font-style="normal" font-variant="normal" font-weight="400" font-stretch="normal" font-size="14" text-anchor="start" direction="ltr" writing-mode="lr-tb" unicode-bidi="normal" text-decoration="none" transform="matrix(1 0 0 1 1803.8 1321)">v10_texcoords[1]</text><text fill="#215F9A" fill-opacity="1" font-family="Aptos,Aptos_MSFontService,sans-serif" font-style="normal" font-variant="normal" font-weight="400" font-stretch="normal" font-size="14" text-anchor="start" direction="ltr" writing-mode="lr-tb" unicode-bidi="normal" text-decoration="none" transform="matrix(1 0 0 1 1805.53 1356)">v10_texcoords[0]</text><text fill="#000000" fill-opacity="1" font-family="Aptos,Aptos_MSFontService,sans-serif" font-style="normal" font-variant="normal" font-weight="400" font-stretch="normal" font-size="32" text-anchor="start" direction="ltr" writing-mode="lr-tb" unicode-bidi="normal" text-decoration="none" transform="matrix(1 0 0 1 1717.36 812)">v1</text><text fill="#000000" fill-opacity="1" font-family="Aptos,Aptos_MSFontService,sans-serif" font-style="normal" font-variant="normal" font-weight="400" font-stretch="normal" font-size="32" text-anchor="start" direction="ltr" writing-mode="lr-tb" unicode-bidi="normal" text-decoration="none" transform="matrix(1 0 0 1 1981.77 812)">v2</text><text fill="#000000" fill-opacity="1" font-family="Aptos,Aptos_MSFontService,sans-serif" font-style="normal" font-variant="normal" font-weight="400" font-stretch="normal" font-size="32" text-anchor="start" direction="ltr" writing-mode="lr-tb" unicode-bidi="normal" text-decoration="none" transform="matrix(1 0 0 1 2212.45 816)">v3</text><text fill="#000000" fill-opacity="1" font-family="Aptos,Aptos_MSFontService,sans-serif" font-style="normal" font-variant="normal" font-weight="400" font-stretch="normal" font-size="32" text-anchor="start" direction="ltr" writing-mode="lr-tb" unicode-bidi="normal" text-decoration="none" transform="matrix(1 0 0 1 1604.04 1098)">v5 </text><text fill="#FF0000" fill-opacity="1" font-family="Aptos,Aptos_MSFontService,sans-serif" font-style="normal" font-variant="normal" font-weight="400" font-stretch="normal" font-size="32" text-anchor="start" direction="ltr" writing-mode="lr-tb" unicode-bidi="normal" text-decoration="none" transform="matrix(1 0 0 1 1641.86 1098)">f(0)</text><text fill="#000000" fill-opacity="1" font-family="Aptos,Aptos_MSFontService,sans-serif" font-style="normal" font-variant="normal" font-weight="400" font-stretch="normal" font-size="32" text-anchor="start" direction="ltr" writing-mode="lr-tb" unicode-bidi="normal" text-decoration="none" transform="matrix(1 0 0 1 1864.77 1099)">v6 </text><text fill="#FF0000" fill-opacity="1" font-family="Aptos,Aptos_MSFontService,sans-serif" font-style="normal" font-variant="normal" font-weight="400" font-stretch="normal" font-size="32" text-anchor="start" direction="ltr" writing-mode="lr-tb" unicode-bidi="normal" text-decoration="none" transform="matrix(1 0 0 1 1902.58 1099)">f(3)</text><text fill="#000000" fill-opacity="1" font-family="Aptos,Aptos_MSFontService,sans-serif" font-style="normal" font-variant="normal" font-weight="400" font-stretch="normal" font-size="32" text-anchor="start" direction="ltr" writing-mode="lr-tb" unicode-bidi="normal" text-decoration="none" transform="matrix(1 0 0 1 2099.14 1102)">v7</text><text fill="#000000" fill-opacity="1" font-family="Aptos,Aptos_MSFontService,sans-serif" font-style="normal" font-variant="normal" font-weight="400" font-stretch="normal" font-size="32" text-anchor="start" direction="ltr" writing-mode="lr-tb" unicode-bidi="normal" text-decoration="none" transform="matrix(1 0 0 1 1554.77 1384)">v9 </text><text fill="#FF0000" fill-opacity="1" font-family="Aptos,Aptos_MSFontService,sans-serif" font-style="normal" font-variant="normal" font-weight="400" font-stretch="normal" font-size="32" text-anchor="start" direction="ltr" writing-mode="lr-tb" unicode-bidi="normal" text-decoration="none" transform="matrix(1 0 0 1 1592.58 1384)">f(1)</text><text fill="#000000" fill-opacity="1" font-family="Aptos,Aptos_MSFontService,sans-serif" font-style="normal" font-variant="normal" font-weight="400" font-stretch="normal" font-size="32" text-anchor="start" direction="ltr" writing-mode="lr-tb" unicode-bidi="normal" text-decoration="none" transform="matrix(1 0 0 1 1813.99 1386)">v10 </text><text fill="#FF0000" fill-opacity="1" font-family="Aptos,Aptos_MSFontService,sans-serif" font-style="normal" font-variant="normal" font-weight="400" font-stretch="normal" font-size="32" text-anchor="start" direction="ltr" writing-mode="lr-tb" unicode-bidi="normal" text-decoration="none" transform="matrix(1 0 0 1 1868.99 1386)">f(2)</text><text fill="#000000" fill-opacity="1" font-family="Aptos,Aptos_MSFontService,sans-serif" font-style="normal" font-variant="normal" font-weight="400" font-stretch="normal" font-size="32" text-anchor="start" direction="ltr" writing-mode="lr-tb" unicode-bidi="normal" text-decoration="none" transform="matrix(1 0 0 1 2047.15 1392)">v11</text><text fill="#000000" fill-opacity="1" font-family="Aptos,Aptos_MSFontService,sans-serif" font-style="normal" font-variant="normal" font-weight="400" font-stretch="normal" font-size="32" text-anchor="start" direction="ltr" writing-mode="lr-tb" unicode-bidi="normal" text-decoration="none" transform="matrix(1 0 0 1 1578.85 1655)">v13</text><text fill="#000000" fill-opacity="1" font-family="Aptos,Aptos_MSFontService,sans-serif" font-style="normal" font-variant="normal" font-weight="400" font-stretch="normal" font-size="32" text-anchor="start" direction="ltr" writing-mode="lr-tb" unicode-bidi="normal" text-decoration="none" transform="matrix(1 0 0 1 1843.26 1655)">v14</text><text fill="#000000" fill-opacity="1" font-family="Aptos,Aptos_MSFontService,sans-serif" font-style="normal" font-variant="normal" font-weight="400" font-stretch="normal" font-size="32" text-anchor="start" direction="ltr" writing-mode="lr-tb" unicode-bidi="normal" text-decoration="none" transform="matrix(1 0 0 1 2073.94 1659)">v15</text></g></g></svg>