<svg width="1623" height="747" xmlns="http://www.w3.org/2000/svg" xmlns:xlink="http://www.w3.org/1999/xlink" xml:space="preserve" overflow="hidden"><g transform="translate(-1246 -715)"><g><path d="M1261.5 1281.5 1399.5 729.5 2011.5 729.5 1873.5 1281.5Z" stroke="#FFC000" stroke-width="9.16667" stroke-linecap="butt" stroke-linejoin="miter" stroke-miterlimit="8" stroke-opacity="1" fill="none" fill-rule="evenodd"/><path d="M0 0 137.987 551.947" stroke="#000000" stroke-width="9.16667" stroke-linecap="butt" stroke-linejoin="miter" stroke-miterlimit="8" stroke-opacity="1" fill="none" fill-rule="evenodd" transform="matrix(-1 0 0 1 1705.49 729.5)"/><path d="M0 0 612.544 0.000360892" stroke="#000000" stroke-width="9.16667" stroke-linecap="butt" stroke-linejoin="miter" stroke-miterlimit="8" stroke-opacity="1" fill="none" fill-rule="evenodd" transform="matrix(-1 0 0 1 1943.04 1005.5)"/><path d="M1997 729C1997 721.82 2002.82 716 2010 716 2017.18 716 2023 721.82 2023 729 2023 736.18 2017.18 742 2010 742 2002.82 742 1997 736.18 1997 729Z" fill="#FF0000" fill-rule="evenodd" fill-opacity="1"/><path d="M1860 1279C1860 1271.82 1865.82 1266 1873 1266 1880.18 1266 1886 1271.82 1886 1279 1886 1286.18 1880.18 1292 1873 1292 1865.82 1292 1860 1286.18 1860 1279Z" fill="#FF0000" fill-rule="evenodd" fill-opacity="1"/><path d="M1387 729C1387 721.82 1392.82 716 1400 716 1407.18 716 1413 721.82 1413 729 1413 736.18 1407.18 742 1400 742 1392.82 742 1387 736.18 1387 729Z" fill="#FF0000" fill-rule="evenodd" fill-opacity="1"/><path d="M1249 1279C1249 1271.82 1254.82 1266 1262 1266 1269.18 1266 1275 1271.82 1275 1279 1275 1286.18 1269.18 1292 1262 1292 1254.82 1292 1249 1286.18 1249 1279Z" fill="#FF0000" fill-rule="evenodd" fill-opacity="1"/><path d="M1623 1005C1623 997.82 1628.82 992 1636 992 1643.18 992 1649 997.82 1649 1005 1649 1012.18 1643.18 1018 1636 1018 1628.82 1018 1623 1012.18 1623 1005Z" fill="#00B050" fill-rule="evenodd" fill-opacity="1"/><text fill="#000000" fill-opacity="1" font-family="Aptos,Aptos_MSFontService,sans-serif" font-style="normal" font-variant="normal" font-weight="400" font-stretch="normal" font-size="83" text-anchor="start" direction="ltr" writing-mode="lr-tb" unicode-bidi="normal" text-decoration="none" transform="matrix(1 0 0 1 1313.64 1387)">F</text><text fill="#000000" fill-opacity="1" font-family="Aptos,Aptos_MSFontService,sans-serif" font-style="normal" font-variant="normal" font-weight="400" font-stretch="normal" font-size="83" text-anchor="start" direction="ltr" writing-mode="lr-tb" unicode-bidi="normal" text-decoration="none" transform="matrix(1 0 0 1 1356.18 1387)">ace Texcoord</text><path d="M2100.5 1282.48 2238.49 730.5 2851.5 730.5 2713.51 1282.48Z" stroke="#000000" stroke-width="9.16667" stroke-linecap="butt" stroke-linejoin="miter" stroke-miterlimit="8" stroke-opacity="1" fill="none" fill-rule="evenodd"/><path d="M0 0 137.987 551.947" stroke="#000000" stroke-width="9.16667" stroke-linecap="butt" stroke-linejoin="miter" stroke-miterlimit="8" stroke-opacity="1" fill="none" fill-rule="evenodd" transform="matrix(-1 0 0 1 2545.49 730.5)"/><path d="M0 0 612.544 0.000360892" stroke="#000000" stroke-width="9.16667" stroke-linecap="butt" stroke-linejoin="miter" stroke-miterlimit="8" stroke-opacity="1" fill="none" fill-rule="evenodd" transform="matrix(-1 0 0 1 2782.04 1006.5)"/><path d="M0 0 612.544 0.000360892" stroke="#FFC000" stroke-width="9.16667" stroke-linecap="butt" stroke-linejoin="miter" stroke-miterlimit="8" stroke-opacity="1" fill="none" fill-rule="evenodd" transform="matrix(-1 0 0 1 2852.04 730.5)"/><path d="M2839 731C2839 723.82 2844.82 718 2852 718 2859.18 718 2865 723.82 2865 731 2865 738.18 2859.18 744 2852 744 2844.82 744 2839 738.18 2839 731Z" fill="#FF0000" fill-rule="evenodd" fill-opacity="1"/><path d="M2226 729C2226 721.82 2231.82 716 2239 716 2246.18 716 2252 721.82 2252 729 2252 736.18 2246.18 742 2239 742 2231.82 742 2226 736.18 2226 729Z" fill="#FF0000" fill-rule="evenodd" fill-opacity="1"/><path d="M2532 730C2532 722.82 2537.6 717 2544.5 717 2551.4 717 2557 722.82 2557 730 2557 737.18 2551.4 743 2544.5 743 2537.6 743 2532 737.18 2532 730Z" fill="#00B050" fill-rule="evenodd" fill-opacity="1"/><text fill="#000000" fill-opacity="1" font-family="Aptos,Aptos_MSFontService,sans-serif" font-style="normal" font-variant="normal" font-weight="400" font-stretch="normal" font-size="83" text-anchor="start" direction="ltr" writing-mode="lr-tb" unicode-bidi="normal" text-decoration="none" transform="matrix(1 0 0 1 2148.25 1375)">Edge </text><text fill="#000000" fill-opacity="1" font-family="Aptos,Aptos_MSFontService,sans-serif" font-style="normal" font-variant="normal" font-weight="400" font-stretch="normal" font-size="83" text-anchor="start" direction="ltr" writing-mode="lr-tb" unicode-bidi="normal" text-decoration="none" transform="matrix(1 0 0 1 2340.16 1375)">Texcoord</text></g></g></svg>