<svg width="770" height="573" xmlns="http://www.w3.org/2000/svg" xmlns:xlink="http://www.w3.org/1999/xlink" xml:space="preserve" overflow="hidden"><g transform="translate(-3194 -719)"><g><path d="M3274 1009 3343 733 3649 733 3580 1009Z" fill="#FFFF00" fill-rule="evenodd" fill-opacity="0.501961"/><path d="M3205.5 1285.5 3343.5 733.5 3955.5 733.5 3817.5 1285.5Z" stroke="#000000" stroke-width="9.16667" stroke-linecap="butt" stroke-linejoin="miter" stroke-miterlimit="8" stroke-opacity="1" fill="none" fill-rule="evenodd"/><path d="M0 0 137.987 551.947" stroke="#000000" stroke-width="9.16667" stroke-linecap="butt" stroke-linejoin="miter" stroke-miterlimit="8" stroke-opacity="1" fill="none" fill-rule="evenodd" transform="matrix(-1 0 0 1 3649.49 733.5)"/><path d="M0 0 612.544 0.000360892" stroke="#000000" stroke-width="9.16667" stroke-linecap="butt" stroke-linejoin="miter" stroke-miterlimit="8" stroke-opacity="1" fill="none" fill-rule="evenodd" transform="matrix(-1 0 0 1 3887.04 1009.5)"/><text fill="#000000" fill-opacity="1" font-family="Aptos,Aptos_MSFontService,sans-serif" font-style="normal" font-variant="normal" font-weight="400" font-stretch="normal" font-size="37" text-anchor="start" direction="ltr" writing-mode="lr-tb" unicode-bidi="normal" text-decoration="none" transform="matrix(1 0 0 1 3416.85 980)">mid</text><text fill="#000000" fill-opacity="1" font-family="Aptos,Aptos_MSFontService,sans-serif" font-style="normal" font-variant="normal" font-weight="400" font-stretch="normal" font-size="37" text-anchor="start" direction="ltr" writing-mode="lr-tb" unicode-bidi="normal" text-decoration="none" transform="matrix(1 0 0 1 3477.58 980)">_poin</text><text fill="#000000" fill-opacity="1" font-family="Aptos,Aptos_MSFontService,sans-serif" font-style="normal" font-variant="normal" font-weight="400" font-stretch="normal" font-size="37" text-anchor="start" direction="ltr" writing-mode="lr-tb" unicode-bidi="normal" text-decoration="none" transform="matrix(1 0 0 1 3578.99 784)">v1</text><text fill="#000000" fill-opacity="1" font-family="Aptos,Aptos_MSFontService,sans-serif" font-style="normal" font-variant="normal" font-weight="400" font-stretch="normal" font-size="37" text-anchor="start" direction="ltr" writing-mode="lr-tb" unicode-bidi="normal" text-decoration="none" transform="matrix(1 0 0 1 3365.93 784)">v2</text><text fill="#000000" fill-opacity="1" font-family="Aptos,Aptos_MSFontService,sans-serif" font-style="normal" font-variant="normal" font-weight="400" font-stretch="normal" font-size="37" text-anchor="start" direction="ltr" writing-mode="lr-tb" unicode-bidi="normal" text-decoration="none" transform="matrix(1 0 0 1 3317.2 982)">v</text><text fill="#000000" fill-opacity="1" font-family="Aptos,Aptos_MSFontService,sans-serif" font-style="normal" font-variant="normal" font-weight="400" font-stretch="normal" font-size="37" text-anchor="start" direction="ltr" writing-mode="lr-tb" unicode-bidi="normal" text-decoration="none" transform="matrix(1 0 0 1 3333.81 982)">3</text><path d="M0 0 309.027 0.000360892" stroke="#FFC000" stroke-width="9.16667" stroke-linecap="butt" stroke-linejoin="miter" stroke-miterlimit="8" stroke-opacity="1" fill="none" fill-rule="evenodd" transform="matrix(-1 0 0 1 3580.53 1009.5)"/><path d="M0 0 308.599 0.207152" stroke="#FFC000" stroke-width="10.5413" stroke-linecap="butt" stroke-linejoin="miter" stroke-miterlimit="8" stroke-opacity="1" fill="none" fill-rule="evenodd" transform="matrix(-1 0 0 1 3652.1 732.5)"/><path d="M0 0 69.0376 272.654" stroke="#FFC000" stroke-width="10.5413" stroke-linecap="butt" stroke-linejoin="miter" stroke-miterlimit="8" stroke-opacity="1" fill="none" fill-rule="evenodd" transform="matrix(-1 0 0 1 3649.54 733.5)"/><path d="M3636 733C3636 725.82 3641.82 720 3649 720 3656.18 720 3662 725.82 3662 733 3662 740.18 3656.18 746 3649 746 3641.82 746 3636 740.18 3636 733Z" fill="#FF0000" fill-rule="evenodd" fill-opacity="1"/><path d="M0 0 69.4288 278.153" stroke="#FFC000" stroke-width="10.5413" stroke-linecap="butt" stroke-linejoin="miter" stroke-miterlimit="8" stroke-opacity="1" fill="none" fill-rule="evenodd" transform="matrix(-1 0 0 1 3344.93 728.5)"/><path d="M3567 1008.5C3567 1001.6 3572.82 996 3580 996 3587.18 996 3593 1001.6 3593 1008.5 3593 1015.4 3587.18 1021 3580 1021 3572.82 1021 3567 1015.4 3567 1008.5Z" fill="#FF0000" fill-rule="evenodd" fill-opacity="1"/><path d="M3329 735C3329 727.82 3334.82 722 3342 722 3349.18 722 3355 727.82 3355 735 3355 742.18 3349.18 748 3342 748 3334.82 748 3329 742.18 3329 735Z" fill="#FF0000" fill-rule="evenodd" fill-opacity="1"/><path d="M3263 1007C3263 999.82 3268.82 994 3276 994 3283.18 994 3289 999.82 3289 1007 3289 1014.18 3283.18 1020 3276 1020 3268.82 1020 3263 1014.18 3263 1007Z" fill="#FF0000" fill-rule="evenodd" fill-opacity="1"/><text fill="#000000" fill-opacity="1" font-family="Aptos,Aptos_MSFontService,sans-serif" font-style="normal" font-variant="normal" font-weight="400" font-stretch="normal" font-size="37" text-anchor="start" direction="ltr" writing-mode="lr-tb" unicode-bidi="normal" text-decoration="none" transform="matrix(1 0 0 1 3569.26 980)">t</text></g></g></svg>