# Blender 4.0.2
# www.blender.org
mtllib strange.mtl
o Cube.001
v 2.413278 -0.875324 0.227362
v 2.413278 0.124676 0.227362
v 2.413278 -0.875324 -0.772638
v 2.413278 0.124676 -0.772638
v 3.413278 -0.875324 0.227362
v 3.326765 0.168432 0.313345
v 3.413278 -0.875324 -0.772638
v 3.413278 0.124676 -0.772638
v 2.303710 -0.984892 -0.272638
v 2.303710 -0.375324 0.336930
v 2.303710 0.234244 -0.272638
v 2.303710 -0.375324 -0.882206
v 2.913278 -0.984892 -0.882206
v 2.913278 0.234244 -0.882206
v 3.522846 -0.375324 -0.882206
v 3.522846 -0.984892 -0.272638
v 3.522846 0.234244 -0.272638
v 3.411681 -0.413623 0.473217
v 2.913278 -0.984892 0.336930
v 2.851691 0.097400 0.417207
v 2.073771 -0.375324 -0.272638
v 2.913278 -0.375324 -1.112144
v 3.621905 -0.492348 -0.085569
v 2.913278 -0.375324 0.566869
v 2.913278 -1.214830 -0.272638
v 2.913278 0.464182 -0.272638
v 3.572375 -0.129052 -0.179103
v 3.453678 -0.134152 0.299958
vn -0.9015 -0.3061 0.3061
vn -0.9295 0.2608 0.2608
vn -0.9015 0.3061 -0.3061
vn -0.9015 -0.3061 -0.3061
vn -0.3061 -0.3061 -0.9015
vn -0.3061 0.3061 -0.9015
vn 0.3061 0.3061 -0.9015
vn 0.3061 -0.3061 -0.9015
vn 0.9640 -0.1880 -0.1880
vn -0.9476 -0.1319 -0.2910
vn 0.9171 -0.2386 0.3194
vn 0.2102 -0.3966 0.8936
vn -0.3536 0.2571 0.8994
vn -0.3061 -0.3061 0.9015
vn -0.3061 -0.9015 -0.3061
vn 0.3061 -0.9015 -0.3061
vn 0.3061 -0.9015 0.3061
vn -0.3061 -0.9015 0.3061
vn 0.3061 0.9015 -0.3061
vn -0.3061 0.9015 -0.3061
vn -0.2405 0.8977 0.3691
vn 0.1684 0.9227 0.3469
vn -0.8823 0.3328 0.3328
vn -0.9161 -0.2776 -0.2892
vn -0.9884 -0.1072 0.1072
vn 0.9665 0.1815 -0.1815
vn -0.2529 -0.3038 -0.9185
vt 0.375000 0.000000
vt 0.500000 0.000000
vt 0.500000 0.125000
vt 0.375000 0.125000
vt 0.875000 0.750000
vt 0.875000 0.625000
vt 0.500000 1.000000
vt 0.625000 0.125000
vt 0.625000 0.250000
vt 0.500000 0.250000
vt 0.375000 0.250000
vt 0.500000 0.375000
vt 0.375000 0.375000
vt 0.625000 0.375000
vt 0.625000 0.500000
vt 0.500000 0.500000
vt 0.375000 0.500000
vt 0.500000 0.625000
vt 0.375000 0.625000
vt 0.500000 0.750000
vt 0.000000 0.000000
vt 0.562500 0.625000
vt 0.375000 0.750000
vt 0.500000 0.875000
vt 0.375000 0.875000
vt 0.750000 0.750000
vt 0.375000 1.000000
vt 0.125000 0.500000
vt 0.250000 0.500000
vt 0.250000 0.625000
vt 0.125000 0.625000
vt 0.250000 0.750000
vt 0.125000 0.750000
vt 0.750000 0.500000
vt 0.750000 0.625000
vt 0.625000 0.625000
vt 0.875000 0.500000
vt 0.625000 0.750000
s 0
f 1/1/1 10/2/1 21/3/1 9/4/1
f 2/5/2 11/6/2 10/7/2
f 21/3/3 11/8/3 4/9/3 12/10/3
f 9/4/4 21/3/4 12/10/4 3/11/4
f 3/11/5 12/10/5 22/12/5 13/13/5
f 12/10/6 4/9/6 14/14/6 22/12/6
f 22/12/7 14/14/7 8/15/7 15/16/7
f 13/13/8 22/12/8 15/16/8 7/17/8
f 7/17/9 15/16/9 23/18/9 16/19/9
f 18/20/10 28/21/10 27/22/10 23/18/10
f 16/19/11 23/18/11 18/20/11 5/23/11
f 18/20/12 24/24/12 19/25/12 5/23/12
f 10/7/13 24/24/13 20/26/13 2/5/13
f 19/25/14 24/24/14 10/7/14 1/27/14
f 3/28/15 13/29/15 25/30/15 9/31/15
f 13/29/16 7/17/16 16/19/16 25/30/16
f 25/30/17 16/19/17 5/23/17 19/32/17
f 9/31/18 25/30/18 19/32/18 1/33/18
f 8/15/19 14/34/19 26/35/19 17/36/19
f 14/34/20 4/37/20 11/6/20 26/35/20
f 26/35/21 11/6/21 2/5/21 20/26/21
f 17/36/22 26/35/22 20/26/22 6/38/22
f 21/3/23 10/7/23 11/8/23
f 17/21/24 27/21/24 28/21/24 6/21/24
f 15/16/25 23/18/25 27/22/25
f 15/16/26 8/15/26 17/21/26 27/22/26
f 18/20/27 24/24/27 20/26/27 6/38/27 28/21/27
